<svg width="32" height="32" viewBox="0 0 32 32" fill="none" xmlns="http://www.w3.org/2000/svg">
<path d="M16.8429 30C16.2737 29.8775 15.73 29.7005 15.2535 29.344C14.087 28.4718 13.6139 26.993 14.0801 25.6401C14.5532 24.2668 15.8517 23.3742 17.3237 23.4117C18.72 23.4465 19.9801 24.4285 20.3775 25.7916C20.3996 25.8673 20.4209 25.943 20.443 26.0187C21.704 26.2681 23.9861 25.1313 24.7306 23.849C24.5 23.849 24.2966 23.8516 24.0924 23.849C23.6236 23.8422 23.3845 23.6006 23.3845 23.1283C23.3845 20.4395 23.3828 17.7508 23.3879 15.0629C23.3879 14.8918 23.4236 14.7123 23.4832 14.5515C23.5776 14.3013 23.7648 14.1584 24.0516 14.1703C24.26 14.1788 24.4702 14.172 24.6625 14.172C24.6889 14.132 24.705 14.1184 24.7059 14.1039C24.768 12.4013 24.7246 10.7225 23.9861 9.12628C22.554 6.03504 19.3828 4.13333 15.9836 4.36903C12.0865 4.63961 8.94255 7.56237 8.43117 11.4466C8.31545 12.3298 8.35374 13.2335 8.31971 14.172C8.56221 14.172 8.76046 14.172 8.95786 14.172C9.36799 14.1737 9.60878 14.3813 9.66664 14.7923C9.68366 14.9131 9.68111 15.0373 9.68111 15.1607C9.68111 17.8052 9.68111 20.4498 9.68111 23.0943C9.68111 23.6278 9.46499 23.849 8.93149 23.849C8.11464 23.849 7.2961 23.8703 6.48011 23.8354C5.14593 23.7775 4.05341 22.7012 4.02363 21.3738C3.98874 19.8371 3.9947 18.2987 4.02703 16.7621C4.05341 15.4721 5.14423 14.1039 6.73793 14.1711C6.81536 14.1745 6.89364 14.1711 7.01616 14.1711C7.01616 14.0409 7.01616 13.9312 7.01616 13.8206C7.02467 12.7936 6.96936 11.764 7.18378 10.7481C7.88065 7.45261 9.75684 5.0727 12.8489 3.7632C18.0384 1.56453 23.8848 4.29585 25.6129 9.65297C25.9507 10.6996 26.0741 11.7768 26.063 12.8727C26.0588 13.293 26.063 13.7134 26.063 14.1584C26.5948 14.1694 27.0628 14.3217 27.4636 14.6493C28.2251 15.2722 28.6701 16.0882 28.7033 17.059C28.7544 18.56 28.7442 20.0635 28.7178 21.5653C28.6982 22.6986 27.9971 23.5129 26.8748 23.7052C26.4851 23.7724 26.2664 23.9443 26.0665 24.2583C25.0488 25.8579 23.6023 26.8518 21.744 27.2304C21.3245 27.3155 20.8931 27.3402 20.4464 27.3955C20.2482 28.4225 19.6542 29.1806 18.7013 29.635C18.3507 29.8026 17.9567 29.8809 17.5824 30H16.8429ZM8.33757 22.5012V15.5019C7.81769 15.5019 7.31057 15.5019 6.80429 15.5019C5.92959 15.5019 5.35355 16.0601 5.34844 16.9424C5.33908 18.3728 5.34164 19.8039 5.34759 21.2351C5.35014 21.8707 5.80707 22.4366 6.43757 22.4902C7.06211 22.5438 7.69516 22.5021 8.33843 22.5021L8.33757 22.5012ZM24.7391 15.5036V22.508C25.2768 22.508 25.795 22.5319 26.3107 22.5021C26.9871 22.4629 27.3853 22.0885 27.3879 21.5108C27.3955 20.0796 27.3998 18.6493 27.3845 17.2181C27.3785 16.6931 27.1896 16.2107 26.8084 15.8448C26.6425 15.6848 26.3983 15.5419 26.1762 15.5189C25.7082 15.4696 25.2309 15.5036 24.7391 15.5036ZM19.1709 26.7479C19.165 25.5916 18.3141 24.7203 17.1961 24.7237C16.1129 24.7271 15.2186 25.6214 15.2348 26.6833C15.251 27.7537 16.1622 28.6556 17.2343 28.6641C18.2886 28.6726 19.1769 27.7937 19.1709 26.7479Z" fill="#191919" stroke="#191919"/>
</svg>
