<svg width="32" height="32" viewBox="0 0 32 32" fill="none" xmlns="http://www.w3.org/2000/svg">
<rect x="9.5" y="11.8999" width="5" height="1" rx="0.5" fill="#191919" stroke="#191919"/>
<rect x="9.5" y="16.8999" width="11" height="1" rx="0.5" fill="#191919" stroke="#191919"/>
<rect x="9.5" y="21.8999" width="11" height="1" rx="0.5" fill="#191919" stroke="#191919"/>
<path d="M17.3996 5.41424L23.9856 12L17.3999 12L17.3996 5.41424Z" stroke="#191919" stroke-width="2"/>
<path fill-rule="evenodd" clip-rule="evenodd" d="M17.2997 4.3999H7C5.89543 4.3999 5 5.29533 5 6.3999V26.3999C5 27.5045 5.89543 28.3999 7 28.3999H20H23C24.1046 28.3999 25 27.5045 25 26.3999V17.1499V12.0999H23V17.1499V26.3999H20H7V6.3999H17.2998L17.2997 4.3999Z" fill="#191919"/>
</svg>
