<svg width="32" height="32" viewBox="0 0 32 32" fill="none" xmlns="http://www.w3.org/2000/svg">
<path d="M12.767 6.85053V6.85393V6.86854V6.88316V6.89778V6.91239V6.92701V6.94162V6.95624V6.97085V6.98547V7.00009V7.0147V7.02932V7.04393V7.05855V7.07316V7.08778V7.1024V7.11701V7.13163V7.14624V7.16086V7.17547V7.19009V7.2047V7.21932V7.23393V7.24855V7.26317V7.27778V7.2924V7.30701V7.32163V7.33624V7.35086V7.36547V7.38009V7.3947V7.40932V7.42394V7.43855V7.45317V7.46778V7.4824V7.49701V7.51163V7.52624V7.54086V7.55547V7.57009V7.5847V7.59932V7.61393V7.62855V7.64316V7.65778V7.67239V7.68701V7.70162V7.71624V7.73085V7.74547V7.76008V7.7747V7.78932V7.80393V7.81855V7.83316V7.84778V7.86239V7.87701V7.89162V7.90624V7.92085V7.93547V7.95008V7.9647V7.97931V7.99393V8.00854V8.02316V8.03777V8.05239V8.067V8.08162V8.09623V8.11085V8.12546V8.14007V8.15469V8.1693V8.18392V8.19853V8.21315V8.22776V8.24238V8.25699V8.27161V8.28622V8.30084V8.31545V8.33007V8.34468V8.3593V8.37391V8.38853V8.40314V8.41776V8.43237V8.44699V8.4616V8.47622V8.49083V8.50545V8.52006V8.53467V8.54929V8.5639V8.57852V8.59313V8.60775V8.62236V8.63698V8.65159V8.66621V8.68082V8.69544V8.71005V8.72467V8.73928V8.75389V8.76851V8.78312V8.79774V8.81235V8.82697V8.84158V8.8562V8.87081V8.88543V8.90004V8.91465V8.92927V8.94388V8.9585V8.97311V8.98773V9.00234V9.01696V9.03157V9.04619V9.0608V9.07542V9.09003V9.10464V9.11926V9.13387V9.14849V9.1631V9.17772V9.19233V9.20695V9.22156V9.23617V9.25079V9.2654V9.28002V9.29463V9.30925V9.32386V9.33848V9.35309V9.36771V9.38232V9.39693V9.41155V9.42616V9.44078V9.45539V9.47001V9.48462V9.49924V9.51385V9.52846V9.54308V9.55769V9.57231V9.58692V9.60154V9.61615V9.63077V9.64538V9.65999V9.67461V9.68922V9.70384V9.71845V9.73307V9.74768V9.7623V9.77691V9.79152V9.80614V9.82075V9.83537V9.84998V9.8646V9.87921V9.89383V9.90844V9.92305V9.93767V9.95228V9.9669V9.98151V9.99613V10.0107V10.0254V10.04V10.0546V10.0692V10.0838V10.0984V10.113V10.1277V10.1423V10.1569V10.1715V10.1861V10.2007V10.2153V10.23V10.2446V10.2592V10.2738V10.2884V10.303V10.3176V10.3323V10.3469V10.3615V10.3761V10.3907V10.4053V10.4199V10.4346V10.4492V10.4638V10.4784V10.493V10.5076V10.5222V10.5369V10.5515V10.5661V10.5807V10.5953V10.6099V10.6245V10.6392V10.6538V10.6684V10.683V10.6976V10.7122V10.7268V10.7415V10.7561V10.7707V10.7853V10.7999V10.8145V10.8292V10.8438V10.8584V10.873V10.8876V10.9022V10.9168V10.9315V10.9461V10.9607V10.9753V10.9899V11.0045V11.0191V11.0338V11.0484V11.063V11.0776V11.0922V11.1068V11.1214V11.1361V11.1507V11.1653V11.1799V11.1945V11.2091V11.2237V11.2384V11.253V11.2676V11.2822V11.2968V11.3114V11.326V11.3407V11.3553V11.3699V11.3845V11.3991V11.4137V11.4283V11.443V11.4576V11.4722V11.4868V11.5014V11.516V11.5307V11.5453V11.5599V11.5745V11.5891V11.6037V11.6183V11.633V11.6476V11.6622V11.6768V11.6914V11.706V11.7206V11.7353V11.7499V11.7645V11.7791V11.7937V11.8083V11.8229V11.8376V11.8522V11.8668V11.8814V11.896V11.9106V11.9253V11.9399V11.9545V11.9691V11.9837V11.9983V12.0129V12.0276V12.0422V12.0568V12.0714V12.086V12.1006V12.1152V12.1299V12.1445V12.1591V12.1737V12.1883V12.2029V12.2176V12.2322V12.2468V12.2614V12.276V12.2906V12.3052V12.3199V12.3345V12.3491V12.3637V12.3783V12.3929V12.4076V12.4222V12.4368V12.4514V12.466V12.4806V12.4952V12.5099V12.5245V12.5391V12.5537V12.5683V12.5829V12.5975V12.6122V12.6268V12.6414V12.656V12.6706V12.6852V12.6999V12.7145V12.7291V12.7437V12.7583V12.7729V12.7876V12.8022V12.8168V12.8314V12.846V12.8606V12.8752V12.8899V12.9045V12.9191V12.9337V12.9483V12.9629V12.9776V12.9922V13.0068V13.0214V13.036V13.0506V13.0652V13.0799V13.0945V13.1091V13.1237V13.1383V13.1529V13.1676V13.1822V13.1968V13.2114V13.226V13.2406V13.2553V13.2699V13.2845V13.2991V13.3137V13.3283V13.3429V13.3576V13.3722V13.3868V13.4014V13.416V13.4306V13.4453V13.4599V13.4745V13.4891V13.5037V13.5183V13.533V13.5476V13.5622V13.5768V13.5914V13.606V13.6207V13.6353V13.6499V13.6645V13.6791V13.6937V13.7084V13.723V25.1524C10.839 25.0072 8.97803 24.2358 7.48259 22.9443C5.85103 21.5353 4.76628 19.6061 4.42284 17.5174L12.767 6.85053ZM12.767 6.85053C12.0793 6.90268 11.3993 7.03278 10.7387 7.23922L10.7382 7.23936C8.6241 7.89916 6.82059 9.30198 5.66127 11.1881L12.767 6.85053ZM12.7665 6.22078C12.7665 6.22076 12.7666 6.22131 12.7666 6.22245L12.7665 6.22078ZM4.42282 17.5173C4.06198 15.3214 4.50255 13.0736 5.66121 11.1882L4.42282 17.5173Z" stroke="#191919" stroke-width="2.6" stroke-linejoin="round"/>
<path d="M25.5774 19.2332H25.581C25.4341 21.1637 24.6663 23.0186 23.3848 24.5043L23.3847 24.5045C21.9789 26.1348 20.0402 27.2237 17.9283 27.5715C17.6741 27.6132 17.4099 27.6408 17.1345 27.662V22.1689V22.1621V22.1553V22.1485V22.1417V22.1349V22.128V22.1212V22.1144V22.1076V22.1008V22.094V22.0872V22.0804V22.0736V22.0668V22.06V22.0532V22.0464V22.0396V22.0328V22.026V22.0192V22.0124V22.0055V21.9987V21.9919V21.9851V21.9783V21.9715V21.9647V21.9579V21.9511V21.9443V21.9375V21.9307V21.9239V21.9171V21.9103V21.9035V21.8967V21.8899V21.883V21.8762V21.8694V21.8626V21.8558V21.849V21.8422V21.8354V21.8286V21.8218V21.815V21.8082V21.8014V21.7946V21.7878V21.781V21.7742V21.7673V21.7605V21.7537V21.7469V21.7401V21.7333V21.7265V21.7197V21.7129V21.7061V21.6993V21.6925V21.6857V21.6789V21.6721V21.6653V21.6584V21.6516V21.6448V21.638V21.6312V21.6244V21.6176V21.6108V21.604V21.5972V21.5904V21.5836V21.5768V21.57V21.5632V21.5564V21.5495V21.5427V21.5359V21.5291V21.5223V21.5155V21.5087V21.5019V21.4951V21.4883V21.4815V21.4747V21.4679V21.4611V21.4543V21.4475V21.4406V21.4338V21.427V21.4202V21.4134V21.4066V21.3998V21.393V21.3862V21.3794V21.3726V21.3658V21.359V21.3522V21.3454V21.3385V21.3317V21.3249V21.3181V21.3113V21.3045V21.2977V21.2909V21.2841V21.2773V21.2705V21.2637V21.2569V21.2501V21.2433V21.2364V21.2296V21.2228V21.216V21.2092V21.2024V21.1956V21.1888V21.182V21.1752V21.1684V21.1616V21.1548V21.148V21.1412V21.1343V21.1275V21.1207V21.1139V21.1071V21.1003V21.0935V21.0867V21.0799V21.0731V21.0663V21.0595V21.0527V21.0459V21.039V21.0322V21.0254V21.0186V21.0118V21.005V20.9982V20.9914V20.9846V20.9778V20.971V20.9642V20.9574V20.9506V20.9437V20.9369V20.9301V20.9233V20.9165V20.9097V20.9029V20.8961V20.8893V20.8825V20.8757V20.8689V20.8621V20.8553V20.8485V20.8416V20.8348V20.828V20.8212V20.8144V20.8076V20.8008V20.794V20.7872V20.7804V20.7736V20.7668V20.76V20.7532V20.7463V20.7395V20.7327V20.7259V20.7191V20.7123V20.7055V20.6987V20.6919V20.6851V20.6783V20.6715V20.6647V20.6579V20.651V20.6442V20.6374V20.6306V20.6238V20.617V20.6102V20.6034V20.5966V20.5898V20.583V20.5762V20.5694V20.5626V20.5557V20.5489V20.5421V20.5353V20.5285V20.5217V20.5149V20.5081V20.5013V20.4945V20.4877V20.4809V20.4741V20.4673V20.4604V20.4536V20.4468V20.44V20.4332V20.4264V20.4196V20.4128V20.406V20.3992V20.3924V20.3856V20.3788V20.372V20.3651V20.3583V20.3515V20.3447V20.3379V20.3311V20.3243V20.3175V20.3107V20.3039V20.2971V20.2903V20.2835V20.2767V20.2698V20.263V20.2562V20.2494V20.2426V20.2358V20.229V20.2222V20.2154V20.2086V20.2018V20.195V20.1882V20.1814V20.1745V20.1677V20.1609V20.1541V20.1473V20.1405V20.1337V20.1269V20.1201V20.1133V20.1065V20.0997V20.0929V20.0861V20.0792V20.0724V20.0656V20.0588V20.052V20.0452V20.0384V20.0316V20.0248V20.018V20.0112V20.0044V19.9976V19.9908V19.9839V19.9771V19.9703V19.9635V19.9567V19.9499V19.9431V19.9363V19.9295V19.9227V19.9159V19.9091V19.9023V19.8955V19.8886V19.8818V19.875V19.8682V19.8614V19.8546V19.8478V19.841V19.8342V19.8274V19.8206V19.8138V19.807V19.8002V19.7934V19.7865V19.7797V19.7729V19.7661V19.7593V19.7525V19.7457V19.7389V19.7321V19.7253V19.7185V19.7117V19.7049V19.6981V19.6912V19.6844V19.6776V19.6708V19.664V19.6572V19.6504V19.6436V19.6368V19.63V19.6232V19.6164V19.6096V19.6028V19.596V19.5891V19.5823V19.5755V19.5687V19.5619V19.5551V19.5483V19.5415V19.5347V19.5279V19.5211V19.5143V19.5075V19.5007V19.4939V19.487V19.4802V19.4734V19.4666V19.4598V19.453V19.4462V19.4394V19.4326V19.4258V19.419V19.4122V19.4054V19.3986V19.3918V19.3849V19.3781V19.3713V19.3645V19.3577V19.3509V19.3441V19.3373V19.3305V19.3237V19.3169V19.3101V19.3033V19.2965V19.2897V19.2829V19.276V19.2692V19.2624V19.2556V19.2488V19.242V19.2352V19.2332H17.1516H17.1703H17.189H17.2077H17.2264H17.245H17.2637H17.2824H17.3011H17.3198H17.3384H17.3571H17.3758H17.3945H17.4132H17.4319H17.4505H17.4692H17.4879H17.5066H17.5253H17.544H17.5626H17.5813H17.6H17.6187H17.6374H17.6561H17.6747H17.6934H17.7121H17.7308H17.7495H17.7681H17.7868H17.8055H17.8242H17.8429H17.8616H17.8802H17.8989H17.9176H17.9363H17.955H17.9737H17.9923H18.011H18.0297H18.0484H18.0671H18.0857H18.1044H18.1231H18.1418H18.1605H18.1792H18.1978H18.2165H18.2352H18.2539H18.2726H18.2913H18.3099H18.3286H18.3473H18.366H18.3847H18.4034H18.422H18.4407H18.4594H18.4781H18.4968H18.5154H18.5341H18.5528H18.5715H18.5902H18.6089H18.6275H18.6462H18.6649H18.6836H18.7023H18.721H18.7396H18.7583H18.777H18.7957H18.8144H18.833H18.8517H18.8704H18.8891H18.9078H18.9265H18.9451H18.9638H18.9825H19.0012H19.0199H19.0386H19.0572H19.0759H19.0946H19.1133H19.132H19.1506H19.1693H19.188H19.2067H19.2254H19.2441H19.2627H19.2814H19.3001H19.3188H19.3375H19.3562H19.3748H19.3935H19.4122H19.4309H19.4496H19.4683H19.4869H19.5056H19.5243H19.543H19.5617H19.5803H19.599H19.6177H19.6364H19.6551H19.6738H19.6924H19.7111H19.7298H19.7485H19.7672H19.7859H19.8045H19.8232H19.8419H19.8606H19.8793H19.8979H19.9166H19.9353H19.954H19.9727H19.9914H20.01H20.0287H20.0474H20.0661H20.0848H20.1035H20.1221H20.1408H20.1595H20.1782H20.1969H20.2156H20.2342H20.2529H20.2716H20.2903H20.309H20.3276H20.3463H20.365H20.3837H20.4024H20.4211H20.4397H20.4584H20.4771H20.4958H20.5145H20.5332H20.5518H20.5705H20.5892H20.6079H20.6266H20.6452H20.6639H20.6826H20.7013H20.72H20.7387H20.7573H20.776H20.7947H20.8134H20.8321H20.8508H20.8694H20.8881H20.9068H20.9255H20.9442H20.9629H20.9815H21.0002H21.0189H21.0376H21.0563H21.0749H21.0936H21.1123H21.131H21.1497H21.1684H21.187H21.2057H21.2244H21.2431H21.2618H21.2805H21.2991H21.3178H21.3365H21.3552H21.3739H21.3925H21.4112H21.4299H21.4486H21.4673H21.486H21.5046H21.5233H21.542H21.5607H21.5794H21.5981H21.6167H21.6354H21.6541H21.6728H21.6915H21.7101H21.7288H21.7475H21.7662H21.7849H21.8036H21.8222H21.8409H21.8596H21.8783H21.897H21.9157H21.9343H21.953H21.9717H21.9904H22.0091H22.0278H22.0464H22.0651H22.0838H22.1025H22.1212H22.1398H22.1585H22.1772H22.1959H22.2146H22.2333H22.2519H22.2706H22.2893H22.308H22.3267H22.3454H22.364H22.3827H22.4014H22.4201H22.4388H22.4574H22.4761H22.4948H22.5135H22.5322H22.5509H22.5695H22.5882H22.6069H22.6256H22.6443H22.663H22.6816H22.7003H22.719H22.7377H22.7564H22.7751H22.7937H22.8124H22.8311H22.8498H22.8685H22.8871H22.9058H22.9245H22.9432H22.9619H22.9806H22.9992H23.0179H23.0366H23.0553H23.074H23.0927H23.1113H23.13H23.1487H23.1674H23.1861H23.2047H23.2234H23.2421H23.2608H23.2795H23.2982H23.3168H23.3355H23.3542H23.3729H23.3916H23.4103H23.4289H23.4476H23.4663H23.485H23.5037H23.5224H23.541H23.5597H23.5784H23.5971H23.6158H23.6344H23.6531H23.6718H23.6905H23.7092H23.7279H23.7465H23.7652H23.7839H23.8026H23.8213H23.84H23.8586H23.8773H23.896H23.9147H23.9334H23.952H23.9707H23.9894H24.0081H24.0268H24.0455H24.0641H24.0828H24.1015H24.1202H24.1389H24.1576H24.1762H24.1949H24.2136H24.2323H24.251H24.2696H24.2883H24.307H24.3257H24.3444H24.3631H24.3817H24.4004H24.4191H24.4378H24.4565H24.4752H24.4938H24.5125H24.5312H24.5499H24.5686H24.5873H24.6059H24.6246H24.6433H24.662H24.6807H24.6993H24.718H24.7367H24.7554H24.7741H24.7928H24.8114H24.8301H24.8488H24.8675H24.8862H24.9049H24.9235H24.9422H24.9609H24.9796H24.9983H25.0169H25.0356H25.0543H25.073H25.0917H25.1104H25.129H25.1477H25.1664H25.1851H25.2038H25.2225H25.2411H25.2598H25.2785H25.2972H25.3159H25.3346H25.3532H25.3719H25.3906H25.4093H25.428H25.4466H25.4653H25.484H25.5027H25.5214H25.5401H25.5587H25.5774ZM16.4996 27.6998C16.4997 27.6998 16.5008 27.6998 16.5029 27.7L16.4996 27.6998ZM17.1354 18.6465C17.136 18.6356 17.1368 18.6308 17.137 18.631C17.1372 18.6313 17.1369 18.6368 17.1354 18.6465Z" stroke="#191919" stroke-width="2.6" stroke-linejoin="round"/>
<path d="M17.1358 11.7712C17.1359 11.3175 17.1359 10.8639 17.1358 10.4105C17.1358 10.1674 17.1358 9.92434 17.1358 9.68136V7.25748V7.25062V7.24375V7.23688V7.23002V7.22315V7.21628V7.20941V7.20255V7.19568V7.18881V7.18195V7.17508V7.16821V7.16135V7.15448V7.14761V7.14074V7.13388V7.12701V7.12014V7.11328V7.10641V7.09954V7.09268V7.08581V7.07894V7.07208V7.06521V7.05834V7.05148V7.04461V7.03774V7.03088V7.02401V7.01714V7.01028V7.00341V6.99654V6.98968V6.98281V6.97594V6.96908V6.96221V6.95534V6.94848V6.94161V6.93474V6.92788V6.92101V6.91415V6.90728V6.90041V6.89355V6.88668V6.87981V6.87295V6.86608V6.85921V6.85235V6.84548V6.83862V6.83175V6.82488V6.81802V6.81115V6.80428V6.79742V6.79055V6.78369V6.77682V6.76995V6.76309V6.75622V6.74936V6.74249V6.73562V6.72876V6.72189V6.71503V6.70816V6.70129V6.69443V6.68756V6.6807V6.67383V6.66696V6.6601V6.65323V6.64637V6.6395V6.63263V6.62577V6.6189V6.61204V6.60517V6.5983V6.59144V6.58457V6.57771V6.57084V6.56398V6.55711V6.55024V6.54338V6.53651V6.52965V6.52278V6.51592V6.50905V6.50218V6.49532V6.48845V6.48159V6.47472V6.46786V6.46099V6.45412V6.44726V6.44039V6.43353V6.42666V6.4198V6.41293V6.40607V6.3992V6.39234V6.38547V6.3786V6.37174V6.36487V6.35801V6.35114V6.34428V6.33741V6.33055V6.32368V6.31682V6.30995V6.30309V6.29622V6.28935V6.28249V6.27562V6.26876V6.26189V6.25503V6.24816V6.2413V6.23443V6.22757V6.2207V6.21384V6.20697V6.20011V6.19324V6.18638V6.17951V6.17265V6.16578V6.15892V6.15205V6.14519V6.13832V6.13146V6.12459V6.11773V6.11086V6.104V6.09713V6.09027V6.0834V6.07654V6.06967V6.06281V6.05594V6.04908V6.04221V6.03535V6.02848V6.02162V6.01475V6.00789V6.00102V5.99416V5.98729V5.98043V5.97356V5.9667V5.95983V5.95297V5.9461V5.93924V5.93237V5.92551V5.91864V5.91178V5.90491V5.89805V5.89118V5.88432V5.87746V5.87059V5.86373V5.85686V5.85V5.84313V5.83627V5.8294V5.82254V5.81567V5.80881V5.80194V5.79508V5.78822V5.78135V5.77449V5.76762V5.76076V5.75389V5.74703V5.74016V5.7333V5.72643V5.71957V5.71271V5.70584V5.69898V5.69211V5.68525V5.67838V5.67152V5.66465V5.65779V5.65093V5.64406V5.6372V5.63033V5.62347V5.6166V5.60974V5.60287V5.59601V5.58915V5.58228V5.57542V5.56855V5.56169V5.55482V5.54796V5.5411V5.53423V5.52737V5.5205V5.51364V5.50677V5.49991V5.49305V5.48618V5.47932V5.47245V5.46559V5.45873V5.45186V5.445V5.43813V5.43127V5.4244V5.41754V5.41068V5.40381V5.39695V5.39008V5.38322V5.37636V5.36949V5.36263V5.35576V5.3489V5.34204V5.33517V5.32831V5.32144V5.31458V5.30771V5.30085V5.29399V5.28712V5.28026V5.27339V5.26653V5.25967V5.2528V5.24594V5.23907V5.23221V5.22535V5.21848V5.21162V5.20476V5.19789V5.19103V5.18416V5.1773V5.17044V5.16357V5.15671V5.14984V5.14298V5.13612V5.12925V5.12239V5.11552V5.10866V5.1018V5.09493V5.08807V5.08121V5.07434V5.06748V5.06061V5.05375V5.04689V5.04002V5.03316V5.02629V5.01943V5.01257V5.0057V4.99884V4.99198V4.98511V4.97825V4.97138V4.96452V4.95766V4.95079V4.94393V4.93707V4.9302V4.92334V4.91648V4.90961V4.90275V4.89588V4.88902V4.88216V4.87529V4.86843V4.86157V4.8547V4.84784V4.84097V4.83411V4.82725V4.82038V4.81352V4.80666V4.79979V4.79293V4.78607V4.7792V4.77234V4.76547V4.75861V4.75175V4.74488V4.73802V4.73116V4.72429V4.71743V4.71057V4.7037V4.69684V4.68998V4.68311V4.67625V4.66938V4.66252V4.65566V4.64879V4.64193V4.63507V4.6282V4.62134V4.61448V4.60761V4.60075V4.59389V4.58702V4.58016V4.5733V4.56643V4.55957V4.55271V4.54584V4.53898V4.53211V4.52525V4.51839V4.51152V4.50466V4.4978V4.49093V4.48407V4.47721V4.47034V4.46348V4.45662V4.44975V4.44289V4.43603V4.42916V4.4223V4.41544V4.40857V4.40171V4.39485V4.38798V4.38112V4.37426V4.36739V4.36053V4.35367V4.3468V4.33994V4.33308V4.32973C19.126 4.48596 20.8811 5.21299 22.3987 6.50929L20.3905 8.51695C20.3904 8.51698 20.3904 8.517 20.3904 8.51703M17.1358 11.7712L20.3904 8.51703M17.1358 11.7712C18.2205 10.6863 19.3054 9.60148 20.3904 8.51703M17.1358 11.7712L20.3904 8.51703M23.7406 5.97127C21.7472 4.06175 19.3379 3.06209 16.5779 3.00068C16.3964 2.99606 16.1686 3.01125 16.0134 3.16377L23.7406 5.97127Z" stroke="#191919" stroke-width="2.6" stroke-linejoin="round"/>
<path d="M24.9801 9.74201C26.2743 11.2576 27.0015 13.013 27.1593 15.0038H27.1581H27.1513H27.1444H27.1375H27.1307H27.1238H27.1169H27.1101H27.1032H27.0963H27.0895H27.0826H27.0757H27.0689H27.062H27.0551H27.0483H27.0414H27.0345H27.0277H27.0208H27.0139H27.0071H27.0002H26.9933H26.9865H26.9796H26.9727H26.9659H26.959H26.9521H26.9453H26.9384H26.9315H26.9247H26.9178H26.911H26.9041H26.8972H26.8904H26.8835H26.8766H26.8698H26.8629H26.856H26.8492H26.8423H26.8354H26.8286H26.8217H26.8148H26.808H26.8011H26.7942H26.7874H26.7805H26.7736H26.7668H26.7599H26.753H26.7462H26.7393H26.7324H26.7256H26.7187H26.7118H26.705H26.6981H26.6913H26.6844H26.6775H26.6707H26.6638H26.6569H26.6501H26.6432H26.6363H26.6295H26.6226H26.6157H26.6089H26.602H26.5951H26.5883H26.5814H26.5745H26.5677H26.5608H26.5539H26.5471H26.5402H26.5333H26.5265H26.5196H26.5127H26.5059H26.499H26.4922H26.4853H26.4784H26.4716H26.4647H26.4578H26.451H26.4441H26.4372H26.4304H26.4235H26.4166H26.4098H26.4029H26.396H26.3892H26.3823H26.3754H26.3686H26.3617H26.3548H26.348H26.3411H26.3343H26.3274H26.3205H26.3137H26.3068H26.2999H26.2931H26.2862H26.2793H26.2725H26.2656H26.2587H26.2519H26.245H26.2381H26.2313H26.2244H26.2175H26.2107H26.2038H26.1969H26.1901H26.1832H26.1764H26.1695H26.1626H26.1558H26.1489H26.142H26.1352H26.1283H26.1214H26.1146H26.1077H26.1008H26.094H26.0871H26.0802H26.0734H26.0665H26.0596H26.0528H26.0459H26.039H26.0322H26.0253H26.0185H26.0116H26.0047H25.9979H25.991H25.9841H25.9773H25.9704H25.9635H25.9567H25.9498H25.9429H25.9361H25.9292H25.9223H25.9155H25.9086H25.9017H25.8949H25.888H25.8811H25.8743H25.8674H25.8606H25.8537H25.8468H25.84H25.8331H25.8262H25.8194H25.8125H25.8056H25.7988H25.7919H25.785H25.7782H25.7713H25.7644H25.7576H25.7507H25.7438H25.737H25.7301H25.7232H25.7164H25.7095H25.7027H25.6958H25.6889H25.6821H25.6752H25.6683H25.6615H25.6546H25.6477H25.6409H25.634H25.6271H25.6203H25.6134H25.6065H25.5997H25.5928H25.5859H25.5791H25.5722H25.5653H25.5585H25.5516H25.5447H25.5379H25.531H25.5242H25.5173H25.5104H25.5036H25.4967H25.4898H25.483H25.4761H25.4692H25.4624H25.4555H25.4486H25.4418H25.4349H25.428H25.4212H25.4143H25.4074H25.4006H25.3937H25.3868H25.38H25.3731H25.3662H25.3594H25.3525H25.3457H25.3388H25.3319H25.3251H25.3182H25.3113H25.3045H25.2976H25.2907H25.2839H25.277H25.2701H25.2633H25.2564H25.2495H25.2427H25.2358H25.2289H25.2221H25.2152H25.2083H25.2015H25.1946H25.1877H25.1809H25.174H25.1671H25.1603H25.1534H25.1466H25.1397H25.1328H25.126H25.1191H25.1122H25.1054H25.0985H25.0916H25.0848H25.0779H25.071H25.0642H25.0573H25.0504H25.0436H25.0367H25.0298H25.023H25.0161H25.0092H25.0024H24.9955H24.9886H24.9818H24.9749H24.968H24.9612H24.9543H24.9474H24.9406H24.9337H24.9268H24.92H24.9131H24.9062H24.8994H24.8925H24.8857H24.8788H24.8719H24.8651H24.8582H24.8513H24.8445H24.8376H24.8307H24.8239H24.817H24.8101H24.8033H24.7964H24.7895H24.7827H24.7758H24.7689H24.7621H24.7552H24.7483H24.7415H24.7346H24.7277H24.7209H24.714H24.7071H24.7003H24.6934H24.6865H24.6797H24.6728H24.6659H24.6591H24.6522H24.6453H24.6385H24.6316H24.6247H24.6179H24.611H24.6041H24.5973H24.5904H24.5835H24.5767H24.5698H24.5629H24.5561H24.5492H24.5423H24.5355H24.5286H24.5217H24.5149H24.508H24.5011H24.4943H24.4874H24.4805H24.4737H24.4668H24.4599H24.4531H24.4462H24.4393H24.4325H24.4256H24.4187H24.4119H24.405H24.3981H24.3913H24.3844H24.3775H24.3707H24.3638H24.3569H24.3501H24.3432H24.3363H24.3295H24.3226H24.3157H24.3089H24.302H24.2951H24.2883H24.2814H24.2745H24.2677H24.2608H24.2539H24.2471H24.2402H24.2333H21.8114H21.8097C21.1122 15.0038 20.4142 15.0038 19.7159 15.0041C20.608 14.1127 21.4999 13.2211 22.3917 12.3295C22.8097 11.9117 23.2277 11.4938 23.6456 11.076L23.6456 11.076L24.9801 9.74201ZM18.104 15.0047C18.1041 15.0047 18.1057 15.0048 18.1087 15.005C18.1055 15.0049 18.104 15.0047 18.104 15.0047Z" stroke="#191919" stroke-width="2.6" stroke-linejoin="round"/>
</svg>
