<svg width="32" height="32" viewBox="0 0 32 32" fill="none" xmlns="http://www.w3.org/2000/svg">
<path d="M27.9992 15.2962V16.7023C27.985 16.7777 27.9631 16.8525 27.9579 16.928C27.8658 18.2483 27.5582 19.5177 27.0277 20.7278C25.0588 25.2193 20.8193 27.9921 15.9197 27.9979C12.3113 28.0018 8.70236 27.9992 5.09404 27.9986C4.36361 27.9986 4.00065 27.6362 4 26.9065C4 23.2981 4.00065 19.6892 4 16.0808C3.99936 14.061 4.43259 12.1411 5.40736 10.3695C7.26986 6.98556 10.1091 4.91804 13.9089 4.18954C14.3666 4.10186 14.834 4.06189 15.2969 4C15.7656 4 16.2343 4 16.703 4C16.7629 4.01354 16.8229 4.03417 16.8841 4.03868C18.5668 4.15279 20.1604 4.59569 21.6342 5.40929C25.0149 7.27567 27.0831 10.1123 27.8103 13.9115C27.898 14.3685 27.9373 14.8353 27.9992 15.2969V15.2962ZM5.8754 26.1238C5.99983 26.1238 6.09202 26.1238 6.18485 26.1238C9.39541 26.1238 12.6053 26.1277 15.8159 26.1199C16.3065 26.1186 16.801 26.0961 17.2864 26.031C20.3519 25.6222 22.7456 24.1027 24.4573 21.5491C25.8401 19.4861 26.3552 17.1865 26.0335 14.7218C25.6313 11.6376 24.0937 9.23488 21.5181 7.52129C19.4571 6.15004 17.1652 5.65298 14.7083 5.96501C12.0528 6.30219 9.87441 7.53548 8.17501 9.5843C6.60583 11.4758 5.86895 13.6807 5.87347 16.1382C5.87927 19.372 5.87476 22.6057 5.87476 25.8395C5.87476 25.924 5.87476 26.009 5.87476 26.1244L5.8754 26.1238Z" fill="#191919" stroke="#191919" stroke-width="0.25" stroke-miterlimit="10"/>
<path d="M15.8844 10.561C16.7276 10.5765 17.5644 10.748 18.2942 11.2818C19.298 12.0161 19.6036 13.2971 19.0575 14.4137C18.7564 15.0287 18.3297 15.5361 17.8171 15.9803C17.5638 16.1995 17.3053 16.4148 17.0661 16.6501C16.7708 16.9409 16.6245 17.3058 16.6013 17.7197C16.5903 17.9221 16.5864 18.1258 16.569 18.3276C16.5419 18.6454 16.393 18.8388 16.0797 18.8982C15.845 18.9426 15.5975 18.96 15.3602 18.9388C14.987 18.9052 14.789 18.6964 14.7484 18.2851C14.6317 17.1111 14.9283 16.0912 15.8863 15.3234C16.2267 15.0507 16.5671 14.7728 16.8694 14.4595C17.03 14.2931 17.1531 14.0598 17.215 13.8354C17.3942 13.1856 17.05 12.635 16.3601 12.5022C16.0159 12.4358 15.6478 12.4558 15.2945 12.4854C14.965 12.5125 14.6936 12.6924 14.4893 12.9586C14.399 13.076 14.3133 13.1972 14.2236 13.3151C13.9438 13.6833 13.6163 13.7735 13.1979 13.5982C12.8034 13.4331 12.5758 13.054 12.6409 12.6427C12.7828 11.746 13.3772 11.2309 14.1559 10.8834C14.6917 10.6442 15.2629 10.5694 15.885 10.561H15.8844Z" fill="#191919" stroke="#191919" stroke-width="0.25" stroke-miterlimit="10"/>
<path d="M14.3975 21.337C14.4026 20.6472 14.9777 20.0721 15.6469 20.087C16.3277 20.1024 16.8931 20.6801 16.8885 21.3551C16.884 22.0288 16.3006 22.6064 15.6288 22.6038C14.9487 22.6006 14.3929 22.0288 14.3981 21.337H14.3975Z" fill="#191919" stroke="#191919" stroke-width="0.25" stroke-miterlimit="10"/>
</svg>
