<svg xmlns="http://www.w3.org/2000/svg" width="36" height="36" viewBox="0 0 36 36" fill="none">
  <path d="M17.8 35.5925C27.6306 35.5925 35.6 27.6249 35.6 17.7963C35.6 7.96766 27.6306 0 17.8 0C7.96932 0 0 7.96766 0 17.7963C0 27.6249 7.96932 35.5925 17.8 35.5925Z" fill="#191919"/>
  <path d="M10.0434 18.4812C10.0434 18.2643 10.0434 18.033 10.0434 17.8162V17.7872C10.0434 17.4547 10.1012 17.1367 10.1446 16.8186C10.1591 16.6885 10.188 16.5729 10.2169 16.4428C10.2747 16.2404 10.3326 16.0235 10.4049 15.8211C10.4483 15.6766 10.5061 15.5464 10.5784 15.4019C10.6362 15.2718 10.7085 15.1272 10.7808 14.9971C10.8531 14.867 10.9254 14.7513 10.9977 14.6212C11.07 14.5056 11.1568 14.3899 11.2435 14.2742C11.3014 14.1875 11.3737 14.1152 11.446 14.0429C11.5472 13.9273 11.6484 13.8261 11.7641 13.7249C11.8509 13.6382 11.9376 13.5659 12.0244 13.4936C12.0822 13.4502 12.14 13.4068 12.2123 13.3635C12.2702 13.3201 12.328 13.2767 12.4003 13.2334C12.4726 13.19 12.5449 13.1466 12.6172 13.1032C12.6895 13.0599 12.7618 13.0165 12.8341 12.9731C12.9787 12.9009 13.1233 12.843 13.2679 12.7852C13.398 12.7274 13.5426 12.684 13.6728 12.6406C13.8463 12.5973 14.0054 12.5539 14.1789 12.5394C14.3958 12.5105 14.6271 12.4816 14.844 12.4672C15.1332 12.4672 15.4224 12.5105 15.7116 12.5828C15.8707 12.6262 16.0297 12.6695 16.1888 12.7129C16.2755 12.7418 16.3768 12.7707 16.4635 12.7997C16.6226 12.8575 16.7961 12.9153 16.9551 12.9731C17.0997 13.031 17.2588 13.0743 17.4034 13.1322C17.548 13.1755 17.7071 13.2334 17.8517 13.2623C17.9384 13.2912 18.0396 13.3056 18.1264 13.3056C18.2565 13.2912 18.3867 13.2478 18.5168 13.2189C18.6036 13.19 18.6903 13.1611 18.7771 13.1322C18.9506 13.0743 19.1096 13.0165 19.2687 12.9587C19.4278 12.9009 19.6013 12.843 19.7603 12.7852C19.9339 12.7274 20.1074 12.6695 20.2954 12.6262C20.3966 12.5973 20.5122 12.5683 20.6135 12.5394C20.787 12.4961 20.946 12.4672 21.1196 12.4527C21.4377 12.4093 21.7558 12.4238 22.0739 12.4527C22.3631 12.4961 22.6523 12.5539 22.9415 12.6262C23.1295 12.6695 23.3175 12.7418 23.491 12.8141C23.65 12.8719 23.7946 12.9587 23.9392 13.031C24.0838 13.1032 24.2284 13.19 24.3586 13.2912C24.5032 13.3924 24.6477 13.508 24.7634 13.6237C24.8357 13.696 24.908 13.7683 24.9803 13.8405C25.0237 13.8839 25.0526 13.9128 25.0815 13.9562C25.1105 13.9996 25.1538 14.0429 25.1828 14.0863C25.2261 14.1441 25.284 14.2164 25.3274 14.2742C25.3274 14.2887 25.3563 14.3176 25.3274 14.3321C25.2984 14.3465 25.2551 14.3754 25.2261 14.3899C25.1249 14.4622 25.0092 14.52 24.908 14.5923C24.7779 14.6935 24.6622 14.7947 24.5465 14.8959C24.4598 14.9826 24.3586 15.0694 24.2718 15.1561C24.1706 15.2573 24.0838 15.3585 23.9971 15.4742C23.8958 15.6043 23.8091 15.7488 23.7223 15.8934C23.65 16.0235 23.5922 16.1681 23.5199 16.3127C23.4476 16.4861 23.3753 16.6741 23.3464 16.862C23.3174 17.0066 23.2885 17.1656 23.2741 17.3102C23.2452 17.5559 23.2307 17.7872 23.2451 18.033C23.2451 18.3366 23.2885 18.6257 23.3608 18.9149C23.4042 19.1173 23.4765 19.3052 23.5488 19.4931C23.5777 19.5943 23.6356 19.6811 23.6789 19.7678C23.7512 19.8979 23.838 20.0425 23.9248 20.1726C23.9681 20.2449 24.0115 20.3172 24.0694 20.375C24.1272 20.4473 24.185 20.5196 24.2573 20.5919C24.3875 20.722 24.5176 20.8521 24.6477 20.9822C24.72 21.0545 24.8068 21.1123 24.8791 21.1701C24.9803 21.2569 25.096 21.3291 25.1972 21.4014C25.3129 21.4737 25.4286 21.5315 25.5443 21.6038C25.631 21.6472 25.7178 21.6906 25.8045 21.7339C25.8334 21.7339 25.8335 21.7628 25.819 21.7918C25.7901 21.8785 25.7612 21.9652 25.7178 22.052C25.6744 22.1821 25.6165 22.2977 25.5732 22.4279C25.5009 22.5869 25.443 22.7459 25.3707 22.8905C25.3274 22.9917 25.2695 23.0929 25.2261 23.1796C25.1683 23.3097 25.1105 23.4254 25.0382 23.5555C24.9948 23.6422 24.9369 23.7145 24.8936 23.8013C24.8213 23.9169 24.7634 24.0326 24.6911 24.1482C24.6188 24.2494 24.561 24.3506 24.4887 24.4374C24.4019 24.553 24.3152 24.6687 24.2284 24.7988C24.1417 24.9144 24.0549 25.0301 23.9681 25.1457C23.8669 25.2758 23.7657 25.406 23.6645 25.5216C23.6066 25.5939 23.5343 25.6662 23.4765 25.7385C23.3608 25.8541 23.2452 25.9698 23.1295 26.0854C23.0572 26.1577 22.9704 26.23 22.8836 26.2878C22.768 26.3746 22.6378 26.4324 22.5222 26.5047C22.392 26.577 22.2619 26.6203 22.1317 26.6637C21.9582 26.7215 21.7992 26.7504 21.6257 26.7504C21.322 26.7649 21.0183 26.7215 20.7147 26.6492C20.6135 26.6203 20.5122 26.5914 20.411 26.5625C20.2664 26.5047 20.1074 26.4468 19.9628 26.4035C19.8182 26.3456 19.6591 26.2878 19.5145 26.2444C19.4133 26.2155 19.2976 26.1866 19.1964 26.1577C19.0229 26.1143 18.8494 26.0854 18.6759 26.071C18.3867 26.0421 18.1119 26.0565 17.8227 26.071C17.6637 26.0854 17.5046 26.1288 17.3456 26.1577C17.2443 26.1866 17.1431 26.2155 17.0419 26.2444C16.8829 26.3023 16.7238 26.3601 16.5503 26.4179C16.4057 26.4758 16.2611 26.5336 16.1165 26.577C16.0153 26.6203 15.8996 26.6492 15.7839 26.6781C15.6682 26.7071 15.5526 26.736 15.4369 26.7504C15.3646 26.7649 15.2778 26.7793 15.2055 26.7938H14.9019C14.9019 26.7938 14.8874 26.7938 14.8729 26.7938C14.8006 26.7938 14.7139 26.7938 14.6416 26.7649C14.4536 26.7071 14.2656 26.6492 14.0921 26.548C13.9764 26.4758 13.8608 26.4035 13.7451 26.3167C13.6583 26.2589 13.5716 26.1722 13.4848 26.0999C13.3836 26.0131 13.2968 25.9264 13.2101 25.8397C13.0799 25.6951 12.9498 25.5505 12.8341 25.406C12.7763 25.3337 12.704 25.2614 12.6461 25.1891C12.5594 25.0879 12.4871 24.9867 12.4148 24.8711C12.3425 24.7699 12.2557 24.6687 12.1834 24.5675C12.1111 24.4663 12.0533 24.3651 11.981 24.2639C11.9232 24.1771 11.8653 24.1048 11.8219 24.0181C11.7641 23.9314 11.7063 23.8446 11.6484 23.7434C11.5761 23.6133 11.4894 23.4977 11.4171 23.3675C11.3303 23.1941 11.2291 23.0206 11.1423 22.8471C11.07 22.6881 10.9977 22.5146 10.9254 22.3411C10.8676 22.211 10.8242 22.0809 10.7808 21.9652C10.7374 21.864 10.6941 21.7484 10.6507 21.6472C10.6073 21.5171 10.5639 21.387 10.5206 21.2713C10.4772 21.1412 10.4338 21.0256 10.4049 20.8954C10.3615 20.7075 10.3037 20.5196 10.2603 20.3461C10.2314 20.216 10.2024 20.0714 10.1735 19.9268C10.1446 19.7678 10.1157 19.5943 10.0868 19.4353C10.0434 19.1317 10 18.8137 10 18.4956C10 18.4956 10 18.4667 10 18.4523L10.0434 18.4812Z" fill="white"/>
  <path d="M17.9812 12.4382C17.9812 12.3515 17.9667 12.2647 17.9667 12.178C17.9667 11.9756 17.9667 11.7877 18.0101 11.5997C18.0246 11.4552 18.0535 11.3106 18.0969 11.1805C18.1258 11.0937 18.1402 11.0215 18.1692 10.9347C18.1981 10.8335 18.227 10.7323 18.2704 10.6456C18.3138 10.5444 18.3571 10.4576 18.415 10.3565C18.4439 10.2842 18.4873 10.2119 18.5307 10.1541C18.574 10.0818 18.6319 9.99503 18.6753 9.92275C18.7331 9.83601 18.8054 9.73481 18.8632 9.64807C18.9066 9.59024 18.9644 9.53242 19.0078 9.47459C19.0657 9.40231 19.138 9.33002 19.1958 9.25774C19.2247 9.22882 19.2681 9.18545 19.297 9.15654C19.3549 9.11317 19.4127 9.05534 19.4706 9.01197C19.5284 8.95415 19.6007 8.91078 19.6585 8.86741C19.7597 8.79512 19.861 8.72284 19.9766 8.65055C20.0923 8.57827 20.208 8.52044 20.3381 8.46262C20.4394 8.40479 20.5406 8.36142 20.6418 8.31805C20.8008 8.26022 20.9454 8.20239 21.1045 8.14457C21.2346 8.1012 21.3648 8.07228 21.4949 8.04337C21.625 8.01446 21.7552 8.01446 21.8998 8C21.8998 8.17348 21.9142 8.33251 21.8998 8.47707C21.8998 8.66501 21.8709 8.85295 21.842 9.04089C21.8275 9.171 21.7841 9.30111 21.7552 9.41676C21.7263 9.57579 21.6684 9.72035 21.5961 9.86492C21.5238 10.0095 21.466 10.1541 21.3937 10.2842C21.3359 10.3998 21.2491 10.501 21.1768 10.6167C21.1045 10.7179 21.0322 10.8191 20.9599 10.9058C20.9165 10.9636 20.8731 11.007 20.8298 11.0504C20.7864 11.0937 20.7575 11.1371 20.7141 11.1805C20.6852 11.2094 20.6562 11.2528 20.6273 11.2817C20.5406 11.3684 20.4538 11.4552 20.367 11.5274C20.2803 11.6142 20.1791 11.6865 20.0779 11.7588C19.9477 11.86 19.8176 11.9467 19.673 12.0334C19.5284 12.1202 19.3838 12.178 19.2392 12.2358C19.0946 12.2937 18.9355 12.3515 18.7765 12.3804C18.5017 12.4382 18.2415 12.4671 17.9523 12.4382H17.9812Z" fill="white"/>
</svg>